<svg width="24" height="24" viewBox="0 0 24 24" fill="none" xmlns="http://www.w3.org/2000/svg">
<path d="M16.6429 16.5315L12.7132 14.2627C12.4938 14.136 12.2544 14.0759 12.018 14.0753C12.012 14.0752 12.006 14.0753 12 14.0752C11.994 14.0753 11.988 14.0752 11.982 14.0753C11.7456 14.0759 11.5062 14.136 11.2868 14.2627L7.35708 16.5315V14.9042V13.5174V12.7568V8.23087L11.2868 10.4997C11.5062 10.6264 11.7456 10.6864 11.982 10.687C11.988 10.6872 11.994 10.687 12 10.6871C12.006 10.687 12.012 10.6872 12.018 10.687C12.2544 10.6864 12.4938 10.6264 12.7132 10.4997L16.6429 8.23087V12.7568V13.5174V14.9042V16.5315ZM23.2013 14.1055H19.7241V13.5174V12.7568V10.6568H23.2013C23.6424 10.6568 24 10.2992 24 9.8581C24 9.41696 23.6424 9.05938 23.2013 9.05938H19.7241V5.49263C19.7241 4.97453 19.4424 4.52253 19.024 4.28052C18.589 3.95414 17.9841 3.89866 17.4834 4.18775L12 7.35363L6.51655 4.18775C6.01591 3.89866 5.41088 3.95414 4.97601 4.28052C4.5576 4.52253 4.27591 4.97453 4.27591 5.49263V9.05938H0.798713C0.357581 9.05938 0 9.41696 0 9.8581C0 10.2992 0.357581 10.6568 0.798713 10.6568H4.27591V12.7568V13.5174V14.1055H0.798713C0.357581 14.1055 0 14.4631 0 14.9042C0 15.3454 0.357581 15.703 0.798713 15.703H4.27591V19.2697C4.27591 19.7878 4.5576 20.2398 4.97601 20.4818C5.41088 20.8082 6.01591 20.8637 6.51655 20.5746L12 17.4087L17.4834 20.5746C17.9841 20.8637 18.589 20.8082 19.024 20.4818C19.4424 20.2398 19.7241 19.7878 19.7241 19.2697V15.703H23.2013C23.6424 15.703 24 15.3454 24 14.9042C24 14.4631 23.6424 14.1055 23.2013 14.1055Z" fill="#ED8F24"/>
</svg>
